<svg width="210" height="40" viewBox="0 0 210 40" fill="none" xmlns="http://www.w3.org/2000/svg">
<path d="M23 6C20.3736 6 17.7728 6.52717 15.3463 7.55141C12.9198 8.57565 10.715 10.0769 8.85786 11.9694C7.00069 13.862 5.5275 16.1088 4.52241 18.5815C3.51732 21.0542 3 23.7045 3 26.381C3.00832 28.6755 3.39681 30.9522 4.14909 33.1149C3.82984 31.7554 3.66491 30.363 3.65755 28.9651C3.65775 24.1246 5.54477 19.4824 8.90353 16.0597C12.2623 12.6369 16.8177 10.714 21.5677 10.7138C25.1195 10.7173 28.5901 11.7969 31.5384 13.8154L35.1061 10.1797C31.628 7.47452 27.3754 6.00627 23 6ZM38.2474 12.1203C37.8278 12.1274 37.4019 12.294 37.0495 12.5979L21.7272 25.8137C21.0226 26.4217 19.3669 28.2118 21.7239 30.6137C24.0813 33.016 25.8374 31.325 26.4342 30.6071L39.4062 14.9996C40.0029 14.2816 40.0591 13.2633 39.4062 12.5979C39.0797 12.2653 38.6669 12.1131 38.2474 12.1203ZM41.3301 18.2471L37.9609 21.6805C38.9295 23.9279 39.4432 26.3514 39.4714 28.8058H42.8307C42.9344 28.0017 42.991 27.192 43 26.381C42.9974 23.5816 42.429 20.8128 41.3301 18.2471Z" fill="#10ABC8"/>
<path d="M48.5028 15.9091L51.6669 25.8551H51.7884L54.9588 15.9091H58.027L53.5142 29H49.9474L45.4283 15.9091H48.5028ZM62.1985 29.1918C61.1886 29.1918 60.3192 28.9872 59.5905 28.5781C58.8661 28.1648 58.3079 27.581 57.9158 26.8267C57.5238 26.0682 57.3278 25.1712 57.3278 24.1357C57.3278 23.1257 57.5238 22.2393 57.9158 21.4766C58.3079 20.7138 58.8597 20.1193 59.5714 19.6932C60.2873 19.267 61.1268 19.054 62.0898 19.054C62.7376 19.054 63.3405 19.1584 63.8988 19.3672C64.4613 19.5717 64.9513 19.8807 65.369 20.294C65.7908 20.7074 66.119 21.2273 66.3533 21.8537C66.5877 22.4759 66.7049 23.2045 66.7049 24.0398V24.7876H58.4144V23.1001H64.1417C64.1417 22.7081 64.0565 22.3608 63.886 22.0582C63.7155 21.7557 63.479 21.5192 63.1765 21.3487C62.8782 21.174 62.5309 21.0866 62.1346 21.0866C61.7212 21.0866 61.3548 21.1825 61.0351 21.3743C60.7198 21.5618 60.4726 21.8153 60.2937 22.1349C60.1147 22.4503 60.0231 22.8018 60.0188 23.1896V24.794C60.0188 25.2798 60.1083 25.6996 60.2873 26.0533C60.4705 26.407 60.7283 26.6797 61.0607 26.8714C61.3931 27.0632 61.7873 27.1591 62.2432 27.1591C62.5458 27.1591 62.8228 27.1165 63.0742 27.0312C63.3256 26.946 63.5408 26.8182 63.7198 26.6477C63.8988 26.4773 64.0351 26.2685 64.1289 26.0213L66.6474 26.1875C66.5195 26.7926 66.2575 27.321 65.8611 27.7727C65.4691 28.2202 64.962 28.5696 64.3398 28.821C63.7219 29.0682 63.0082 29.1918 62.1985 29.1918ZM70.4849 15.9091V29H67.7619V15.9091H70.4849ZM76.3823 29.1918C75.3894 29.1918 74.5307 28.9808 73.8063 28.5589C73.0861 28.1328 72.53 27.5405 72.1379 26.782C71.7459 26.0192 71.5499 25.1349 71.5499 24.1293C71.5499 23.1151 71.7459 22.2287 72.1379 21.4702C72.53 20.7074 73.0861 20.1151 73.8063 19.6932C74.5307 19.267 75.3894 19.054 76.3823 19.054C77.3752 19.054 78.2317 19.267 78.9519 19.6932C79.6763 20.1151 80.2345 20.7074 80.6266 21.4702C81.0186 22.2287 81.2146 23.1151 81.2146 24.1293C81.2146 25.1349 81.0186 26.0192 80.6266 26.782C80.2345 27.5405 79.6763 28.1328 78.9519 28.5589C78.2317 28.9808 77.3752 29.1918 76.3823 29.1918ZM76.395 27.0824C76.8467 27.0824 77.2239 26.9545 77.5264 26.6989C77.829 26.4389 78.057 26.0852 78.2104 25.6378C78.3681 25.1903 78.4469 24.6811 78.4469 24.1101C78.4469 23.5391 78.3681 23.0298 78.2104 22.5824C78.057 22.1349 77.829 21.7812 77.5264 21.5213C77.2239 21.2614 76.8467 21.1314 76.395 21.1314C75.9391 21.1314 75.5556 21.2614 75.2445 21.5213C74.9377 21.7812 74.7054 22.1349 74.5477 22.5824C74.3943 23.0298 74.3176 23.5391 74.3176 24.1101C74.3176 24.6811 74.3943 25.1903 74.5477 25.6378C74.7054 26.0852 74.9377 26.4389 75.2445 26.6989C75.5556 26.9545 75.9391 27.0824 76.395 27.0824ZM86.7013 29.1918C85.6956 29.1918 84.8306 28.9787 84.1061 28.5526C83.386 28.1222 82.832 27.5256 82.4442 26.7628C82.0607 26 81.8689 25.1222 81.8689 24.1293C81.8689 23.1236 82.0628 22.2415 82.4506 21.483C82.8427 20.7202 83.3988 20.1257 84.1189 19.6996C84.8391 19.2692 85.6956 19.054 86.6885 19.054C87.5451 19.054 88.2951 19.2095 88.9385 19.5206C89.582 19.8317 90.0912 20.2685 90.4662 20.831C90.8412 21.3935 91.0479 22.054 91.0863 22.8125H88.5167C88.4442 22.3224 88.2525 21.9283 87.9414 21.63C87.6346 21.3274 87.2319 21.1761 86.7333 21.1761C86.3114 21.1761 85.9428 21.2912 85.6275 21.5213C85.3164 21.7472 85.0735 22.0774 84.8988 22.5121C84.724 22.9467 84.6367 23.473 84.6367 24.0909C84.6367 24.7173 84.7219 25.25 84.8924 25.6889C85.0671 26.1278 85.3121 26.4624 85.6275 26.6925C85.9428 26.9226 86.3114 27.0376 86.7333 27.0376C87.0444 27.0376 87.3235 26.9737 87.5706 26.8459C87.8221 26.718 88.0287 26.5327 88.1907 26.2898C88.3569 26.0426 88.4655 25.7464 88.5167 25.4013H91.0863C91.0436 26.1513 90.8391 26.8118 90.4726 27.3828C90.1104 27.9496 89.6097 28.3928 88.9705 28.7124C88.3313 29.032 87.5749 29.1918 86.7013 29.1918ZM92.1097 29V19.1818H94.8327V29H92.1097ZM93.4776 17.9162C93.0728 17.9162 92.7255 17.782 92.4357 17.5135C92.1502 17.2408 92.0074 16.9148 92.0074 16.5355C92.0074 16.1605 92.1502 15.8388 92.4357 15.5703C92.7255 15.2976 93.0728 15.1612 93.4776 15.1612C93.8824 15.1612 94.2276 15.2976 94.5131 15.5703C94.8029 15.8388 94.9478 16.1605 94.9478 16.5355C94.9478 16.9148 94.8029 17.2408 94.5131 17.5135C94.2276 17.782 93.8824 17.9162 93.4776 17.9162ZM101.516 19.1818V21.2273H95.6037V19.1818H101.516ZM96.946 16.8295H99.669V25.983C99.669 26.2344 99.7073 26.4304 99.784 26.571C99.8608 26.7074 99.9673 26.8033 100.104 26.8587C100.244 26.9141 100.406 26.9418 100.589 26.9418C100.717 26.9418 100.845 26.9311 100.973 26.9098C101.101 26.8842 101.199 26.8651 101.267 26.8523L101.695 28.8786C101.559 28.9212 101.367 28.9702 101.12 29.0256C100.873 29.0852 100.572 29.1214 100.219 29.1342C99.5625 29.1598 98.9872 29.0724 98.4929 28.8722C98.0028 28.6719 97.6214 28.3608 97.3487 27.9389C97.076 27.517 96.9417 26.9844 96.946 26.3409V16.8295ZM104.251 32.6818C103.906 32.6818 103.582 32.6541 103.28 32.5987C102.981 32.5476 102.734 32.4815 102.538 32.4006L103.152 30.3679C103.471 30.4659 103.759 30.5192 104.015 30.5277C104.275 30.5362 104.498 30.4766 104.686 30.3487C104.878 30.2209 105.033 30.0036 105.152 29.6967L105.312 29.2812L101.79 19.1818H104.654L106.687 26.392H106.789L108.841 19.1818H111.723L107.907 30.0611C107.724 30.5895 107.475 31.0497 107.16 31.4418C106.848 31.8381 106.454 32.1428 105.977 32.3558C105.5 32.5732 104.924 32.6818 104.251 32.6818ZM118.771 29L115.185 15.9091H116.399L119.365 27.1655H119.467L122.433 15.9091H123.814L126.78 27.1655H126.882L129.848 15.9091H131.069L127.483 29H126.204L123.168 17.897H123.085L120.049 29H118.771ZM135.328 29.2045C134.412 29.2045 133.619 28.9915 132.95 28.5653C132.281 28.1349 131.764 27.5405 131.397 26.782C131.035 26.0192 130.854 25.1413 130.854 24.1484C130.854 23.1598 131.035 22.282 131.397 21.5149C131.764 20.7436 132.269 20.1406 132.912 19.706C133.56 19.267 134.308 19.0476 135.156 19.0476C135.688 19.0476 136.202 19.1456 136.696 19.3416C137.19 19.5334 137.634 19.8295 138.026 20.2301C138.422 20.6264 138.735 21.1271 138.965 21.7322C139.195 22.3331 139.31 23.0447 139.31 23.8672V24.4297H131.64V23.4261H138.147C138.147 22.7955 138.019 22.2287 137.764 21.7259C137.512 21.2187 137.161 20.8182 136.709 20.5241C136.261 20.2301 135.744 20.0831 135.156 20.0831C134.533 20.0831 133.986 20.2493 133.513 20.5817C133.04 20.9141 132.669 21.353 132.401 21.8984C132.136 22.4439 132.002 23.0405 131.998 23.6882V24.2891C131.998 25.0689 132.132 25.7507 132.401 26.3345C132.673 26.9141 133.059 27.3636 133.558 27.6832C134.056 28.0028 134.646 28.1626 135.328 28.1626C135.793 28.1626 136.2 28.0902 136.549 27.9453C136.903 27.8004 137.199 27.6065 137.438 27.3636C137.681 27.1165 137.864 26.8459 137.987 26.5518L139.068 26.9034C138.918 27.3168 138.673 27.6982 138.332 28.0476C137.996 28.397 137.574 28.6783 137.067 28.8913C136.564 29.1001 135.984 29.2045 135.328 29.2045ZM141.334 29V15.9091H142.478V21.0547H142.581C142.709 20.7607 142.892 20.4581 143.13 20.147C143.373 19.8359 143.691 19.576 144.083 19.3672C144.479 19.1541 144.978 19.0476 145.579 19.0476C146.384 19.0476 147.091 19.2607 147.701 19.6868C148.31 20.1087 148.785 20.701 149.126 21.4638C149.467 22.2223 149.638 23.1065 149.638 24.1165C149.638 25.1307 149.467 26.0192 149.126 26.782C148.79 27.5447 148.317 28.1392 147.707 28.5653C147.102 28.9915 146.399 29.2045 145.598 29.2045C145.001 29.2045 144.503 29.098 144.102 28.8849C143.706 28.6719 143.386 28.4098 143.143 28.0987C142.9 27.7834 142.713 27.4766 142.581 27.1783H142.44V29H141.334ZM142.459 24.0973C142.459 24.8899 142.576 25.593 142.811 26.2067C143.049 26.8161 143.39 27.2955 143.834 27.6449C144.281 27.9901 144.822 28.1626 145.457 28.1626C146.109 28.1626 146.661 27.9837 147.113 27.6257C147.564 27.2635 147.907 26.7756 148.142 26.1619C148.376 25.5483 148.493 24.8601 148.493 24.0973C148.493 23.343 148.376 22.6634 148.142 22.0582C147.912 21.4531 147.571 20.9737 147.119 20.62C146.667 20.2621 146.113 20.0831 145.457 20.0831C144.818 20.0831 144.275 20.2557 143.827 20.6009C143.384 20.9418 143.045 21.4148 142.811 22.0199C142.576 22.6207 142.459 23.3132 142.459 24.0973ZM163.104 19.1818C163.031 18.4531 162.71 17.8736 162.139 17.4432C161.568 17.0128 160.85 16.7976 159.984 16.7976C159.375 16.7976 158.838 16.902 158.374 17.1108C157.913 17.3196 157.551 17.6094 157.287 17.9801C157.027 18.3466 156.897 18.7642 156.897 19.233C156.897 19.5781 156.972 19.8807 157.121 20.1406C157.27 20.4006 157.47 20.6243 157.722 20.8118C157.977 20.995 158.259 21.1527 158.565 21.2848C158.877 21.4169 159.19 21.5277 159.505 21.6172L160.886 22.0135C161.303 22.1286 161.721 22.2756 162.139 22.4545C162.556 22.6335 162.938 22.8594 163.283 23.1321C163.632 23.4006 163.911 23.7308 164.12 24.1229C164.333 24.5107 164.44 24.9773 164.44 25.5227C164.44 26.2216 164.259 26.8501 163.896 27.4084C163.534 27.9666 163.014 28.4098 162.337 28.7379C161.659 29.0618 160.847 29.2237 159.901 29.2237C159.011 29.2237 158.237 29.0767 157.581 28.7827C156.925 28.4844 156.409 28.0732 156.034 27.549C155.659 27.0249 155.448 26.4176 155.401 25.7273H156.629C156.671 26.2429 156.842 26.6797 157.14 27.0376C157.438 27.3956 157.826 27.6683 158.303 27.8558C158.781 28.0391 159.313 28.1307 159.901 28.1307C160.553 28.1307 161.133 28.022 161.64 27.8047C162.151 27.5831 162.552 27.2763 162.842 26.8842C163.136 26.4879 163.283 26.0277 163.283 25.5036C163.283 25.0604 163.168 24.6896 162.938 24.3913C162.707 24.0888 162.386 23.8352 161.972 23.6307C161.563 23.4261 161.088 23.245 160.547 23.0874L158.981 22.6271C157.954 22.3203 157.157 21.8963 156.59 21.3551C156.024 20.8139 155.74 20.1236 155.74 19.2841C155.74 18.581 155.928 17.9631 156.303 17.4304C156.682 16.8935 157.193 16.4759 157.837 16.1776C158.484 15.875 159.211 15.7237 160.016 15.7237C160.83 15.7237 161.551 15.8729 162.177 16.1712C162.803 16.4695 163.3 16.8807 163.666 17.4048C164.037 17.9247 164.235 18.517 164.261 19.1818H163.104ZM170.227 19.1818V20.1726H165.541V19.1818H170.227ZM167.005 16.8295H168.149V26.4368C168.149 26.8459 168.22 27.1676 168.36 27.402C168.501 27.6321 168.684 27.7962 168.91 27.8942C169.136 27.9879 169.377 28.0348 169.632 28.0348C169.782 28.0348 169.909 28.0263 170.016 28.0092C170.122 27.9879 170.216 27.9666 170.297 27.9453L170.54 28.9744C170.429 29.017 170.293 29.0554 170.131 29.0895C169.969 29.1278 169.769 29.147 169.53 29.147C169.112 29.147 168.71 29.0554 168.322 28.8722C167.938 28.6889 167.623 28.4162 167.376 28.054C167.129 27.6918 167.005 27.2422 167.005 26.7053V16.8295ZM178.329 25.2479V19.1818H179.467V29H178.329V27.37H178.24C178.01 27.8729 177.645 28.2926 177.147 28.6293C176.648 28.9616 176.039 29.1278 175.319 29.1278C174.692 29.1278 174.136 28.9915 173.65 28.7188C173.165 28.4418 172.783 28.0369 172.506 27.5043C172.229 26.9716 172.091 26.3175 172.091 25.5419V19.1818H173.229V25.4716C173.229 26.2386 173.454 26.8565 173.906 27.3253C174.358 27.7898 174.937 28.022 175.645 28.022C176.088 28.022 176.514 27.9155 176.923 27.7024C177.332 27.4893 177.669 27.1783 177.933 26.7692C178.197 26.3558 178.329 25.8487 178.329 25.2479ZM185.294 29.2045C184.489 29.2045 183.784 28.9915 183.179 28.5653C182.573 28.1392 182.1 27.5447 181.759 26.782C181.423 26.0192 181.254 25.1307 181.254 24.1165C181.254 23.1065 181.423 22.2223 181.759 21.4638C182.1 20.701 182.576 20.1087 183.185 19.6868C183.794 19.2607 184.504 19.0476 185.313 19.0476C185.91 19.0476 186.406 19.1541 186.803 19.3672C187.199 19.576 187.517 19.8359 187.755 20.147C187.994 20.4581 188.179 20.7607 188.311 21.0547H188.414V15.9091H189.558V29H188.446V27.1783H188.311C188.179 27.4766 187.992 27.7834 187.749 28.0987C187.506 28.4098 187.184 28.6719 186.784 28.8849C186.387 29.098 185.891 29.2045 185.294 29.2045ZM185.429 28.1626C186.063 28.1626 186.605 27.9901 187.052 27.6449C187.5 27.2955 187.84 26.8161 188.075 26.2067C188.313 25.593 188.433 24.8899 188.433 24.0973C188.433 23.3132 188.316 22.6207 188.081 22.0199C187.847 21.4148 187.506 20.9418 187.058 20.6009C186.611 20.2557 186.068 20.0831 185.429 20.0831C184.772 20.0831 184.218 20.2621 183.767 20.62C183.319 20.9737 182.978 21.4531 182.744 22.0582C182.514 22.6634 182.399 23.343 182.399 24.0973C182.399 24.8601 182.516 25.5483 182.75 26.1619C182.985 26.7756 183.326 27.2635 183.773 27.6257C184.225 27.9837 184.777 28.1626 185.429 28.1626ZM192.091 29V19.1818H193.235V29H192.091ZM192.673 17.4943C192.439 17.4943 192.238 17.4155 192.072 17.2578C191.906 17.0959 191.823 16.902 191.823 16.6761C191.823 16.4503 191.906 16.2585 192.072 16.1009C192.238 15.9389 192.439 15.858 192.673 15.858C192.907 15.858 193.108 15.9389 193.274 16.1009C193.44 16.2585 193.523 16.4503 193.523 16.6761C193.523 16.902 193.44 17.0959 193.274 17.2578C193.108 17.4155 192.907 17.4943 192.673 17.4943ZM199.341 29.2045C198.493 29.2045 197.743 28.9893 197.091 28.5589C196.443 28.1286 195.936 27.5341 195.569 26.7756C195.203 26.0128 195.02 25.1328 195.02 24.1357C195.02 23.13 195.203 22.2457 195.569 21.483C195.936 20.7159 196.443 20.1193 197.091 19.6932C197.743 19.2628 198.493 19.0476 199.341 19.0476C200.189 19.0476 200.936 19.2628 201.584 19.6932C202.232 20.1236 202.739 20.7202 203.106 21.483C203.476 22.2457 203.662 23.13 203.662 24.1357C203.662 25.1328 203.478 26.0128 203.112 26.7756C202.745 27.5341 202.236 28.1286 201.584 28.5589C200.936 28.9893 200.189 29.2045 199.341 29.2045ZM199.341 28.1626C200.022 28.1626 200.6 27.9794 201.073 27.6129C201.546 27.2464 201.904 26.7585 202.147 26.1491C202.394 25.5398 202.517 24.8686 202.517 24.1357C202.517 23.4027 202.394 22.7294 202.147 22.1158C201.904 21.5021 201.546 21.0099 201.073 20.6392C200.6 20.2685 200.022 20.0831 199.341 20.0831C198.663 20.0831 198.086 20.2685 197.608 20.6392C197.135 21.0099 196.775 21.5021 196.528 22.1158C196.285 22.7294 196.164 23.4027 196.164 24.1357C196.164 24.8686 196.285 25.5398 196.528 26.1491C196.775 26.7585 197.135 27.2464 197.608 27.6129C198.081 27.9794 198.659 28.1626 199.341 28.1626Z" fill="white"/>
</svg>
